<?xml version="1.0" standalone="no"?>
<!DOCTYPE svg PUBLIC "-//W3C//DTD SVG 20010904//EN"
 "http://www.w3.org/TR/2001/REC-SVG-20010904/DTD/svg10.dtd">
<svg version="1.0" xmlns="http://www.w3.org/2000/svg"
 width="824.000000pt" height="824.000000pt" viewBox="0 0 824.000000 824.000000"
 preserveAspectRatio="xMidYMid meet">
<metadata>
Created by potrace 1.14, written by Peter Selinger 2001-2017
</metadata>
<g transform="translate(0.000000,824.000000) scale(0.100000,-0.100000)"
fill="#000000" stroke="none">
<path d="M1100 7268 c-86 -15 -173 -75 -217 -150 -51 -87 -49 -23 -47 -1688 1
-938 6 -1569 11 -1590 27 -99 111 -188 208 -220 32 -11 136 -21 203 -20 16 0
98 0 117 0 64 -1 107 0 245 3 63 2 121 -1 128 -6 6 -5 12 -6 12 -1 0 5 34 9
75 9 41 0 75 -4 75 -8 0 -4 8 -4 18 1 9 4 37 7 62 5 25 -2 51 -3 58 -3 34 1
99 1 117 1 11 -1 56 -1 100 -1 106 0 108 0 158 1 23 0 51 0 62 -1 11 0 63 1
115 3 52 1 101 -1 108 -6 6 -5 12 -6 12 -1 0 8 66 10 153 5 17 -1 18 -8 13
-63 -7 -85 -15 -148 -21 -178 -9 -43 -18 -95 -18 -107 0 -7 -4 -13 -9 -13 -5
0 -7 -4 -4 -9 3 -4 1 -23 -5 -42 -5 -19 -12 -41 -14 -49 -24 -93 -90 -220
-147 -285 -50 -56 -98 -81 -163 -86 -82 -6 -126 -64 -125 -167 0 -31 0 -84 0
-117 1 -33 1 -68 1 -77 0 -10 5 -21 11 -24 15 -9 1892 -9 1907 0 8 6 11 50 10
154 -1 127 -4 150 -20 174 -25 34 -72 58 -117 58 -109 0 -226 135 -295 342
-22 63 -29 87 -43 143 -3 15 -11 56 -18 95 -3 19 -8 49 -11 65 -3 17 -8 61
-10 98 -3 38 -7 73 -11 78 -6 11 -2 11 96 10 41 -1 81 -1 88 -1 6 0 31 0 55 1
23 0 51 0 62 0 11 -1 56 -1 100 -1 106 0 108 0 158 1 23 0 51 0 62 -1 11 0 63
1 115 3 52 1 101 -1 108 -6 6 -5 12 -6 12 -1 0 5 34 9 75 9 41 0 75 -4 75 -8
0 -4 8 -3 18 2 10 6 24 6 32 1 8 -5 18 -6 24 -3 15 10 206 9 206 -1 0 -5 6 -4
13 1 6 5 37 7 67 6 61 -3 61 -3 125 -3 57 0 50 0 185 3 63 2 121 -1 128 -6 6
-5 12 -6 12 -1 0 5 46 9 103 10 88 0 110 4 157 26 92 43 155 116 181 210 13
49 18 3102 5 3172 -22 114 -128 225 -241 253 -32 8 -4659 9 -4705 1z"/>
<path d="M1109 2048 c-31 -12 -79 -67 -80 -92 -1 -12 -2 -217 -3 -456 -1 -411
0 -437 18 -468 10 -19 26 -36 35 -40 9 -3 19 -10 23 -16 5 -8 695 -11 2342
-11 l2336 0 35 35 c19 20 38 47 40 60 12 54 6 897 -6 923 -6 13 -25 36 -43 48
l-31 24 -2322 0 c-1277 1 -2332 -3 -2344 -7z"/>
<path d="M6757 1804 c-1 -1 -27 -5 -57 -8 -30 -4 -73 -12 -95 -17 -22 -6 -47
-13 -55 -14 -8 -2 -16 -4 -17 -5 -2 -2 -6 -4 -10 -5 -36 -11 -93 -40 -93 -47
0 -4 -7 -8 -15 -8 -8 0 -15 -4 -15 -10 0 -5 -6 -10 -12 -10 -7 0 -25 -15 -40
-33 -15 -17 -37 -43 -48 -56 -11 -13 -20 -28 -20 -32 0 -4 -5 -20 -11 -36 -53
-128 0 -269 125 -336 40 -22 48 -22 431 -22 354 0 393 2 422 18 18 9 35 17 38
17 5 0 59 54 81 82 16 20 35 79 28 89 -3 5 -1 9 4 9 10 0 9 59 -3 110 -18 85
-102 185 -195 234 -57 30 -169 63 -240 72 -54 6 -198 12 -203 8z"/>
</g>
</svg>
